<?xml version="1.0" standalone="no"?>
<!DOCTYPE svg PUBLIC "-//W3C//DTD SVG 1.0//EN" "http://www.w3.org/TR/2001/REC-SVG-20010904/DTD/svg10.dtd">
<svg xmlns="http://www.w3.org/2000/svg" xmlns:xlink="http://www.w3.org/1999/xlink" id="body_1" width="285" height="285">

<g transform="matrix(5 0 0 5 0 0)">
	<g transform="matrix(0.07353677 0 0 0.07353677 -8.543522 -8.331716)">
		<g>
			<g>
                <path d="M669.6 164.4C 688.19995 159.79999 700 170.5 710 189.5C 726.9 221.8 746.1 253 764.9 284.4C 771.9 296 772.7 306 765.5 318.19998C 729.5 379.4 694.1 440.8 658.9 502.39996C 651 516.3 647.10004 515.39996 637.2 502.69995C 615.60004 474.99994 616.60004 451.19995 636.8 422.19995C 660.5 388.19995 678.6 350.39996 699.89996 314.69995C 705.89996 304.59995 705.3 296.89996 699.49994 287.19995C 679.99994 254.59995 660.99994 221.69995 642.39996 188.59995C 629.89996 166.29994 631.1 164.69995 657.6 164.49994C 660.3 164.4 663.2 164.4 669.6 164.4z" stroke="none" fill="currentColor" fill-rule="nonzero" />
			</g>
			<g>
                <path d="M875.2 477.6C 888.5 491.30002 885.2 507 873.8 525.1C 854.39996 556 837.1 588.3 819.5 620.3C 813 632.1 804.7 637.89996 790.6 637.89996C 719.69995 637.6 648.69995 637.89996 577.8 638.49994C 561.8 638.5999 560.6 634.89996 566.6 619.7999C 579.69995 587.19995 600.8 576.0999 635.89996 578.8999C 677.19995 582.2999 718.99994 578.7999 760.49994 579.2999C 772.19995 579.3999 778.5999 575.0999 784.0999 565.0999C 802.3999 531.7999 821.2999 498.8999 840.5999 466.0999C 853.5999 443.9999 855.5999 444.29993 869.0999 467.0999C 870.6 469.6 872 472 875.2 477.6z" stroke="none" fill="currentColor" fill-rule="nonzero" />
			</g>
			<g>
                <path d="M708.1 812.8C 703 831.2 687.69995 836.3 666.39996 835.5C 629.89996 834.3 593.3 835.6 556.8 836.5C 543.3 836.8 534.2 832.6 527.1 820.4C 491.59998 759 455.59998 697.80005 419.39996 636.80005C 411.19995 623.00006 413.89996 620.10004 429.89996 617.80005C 464.69995 612.7001 484.89996 625.30005 500.09998 657.10004C 518 694.5 542 728.9 562.5 765C 568.3 775.2 575.3 778.5 586.7 778.2C 624.7 777.3 662.7 777 700.60004 777.2C 726.2 777.3 726.9 779.2 714.10004 802.3C 712.7 804.8 711.3 807.3 708.1 812.8z" stroke="none" fill="currentColor" fill-rule="nonzero" />
			</g>
			<g>
                <path d="M334.4 837.3C 315.9 842.1 303.9 831.5 293.8 812.7C 276.5 780.60004 256.9 749.60004 237.79999 718.5C 230.69998 707 229.79999 697 236.79999 684.7C 272 623.10004 306.69998 561.2 341.19998 499.2C 348.99997 485.2 352.8 486 362.9 498.7C 384.8 526.2 384.1 550 364.3 579.2C 341 613.5 323.4 651.5 302.5 687.4C 296.6 697.60004 297.3 705.30005 303.2 714.9C 323.1 747.2 342.40002 779.9 361.5 812.80005C 374.3 835.00006 373.1 836.60004 346.6 837.10004C 343.6 837.2 340.7 837.2 334.4 837.3z" stroke="none" fill="currentColor" fill-rule="nonzero" />
			</g>
			<g>
                <path d="M125.1 526.6C 111.6 513 114.7 497.3 125.9 479.09998C 145 447.99997 161.9 415.49997 179.1 383.19998C 185.5 371.3 193.6 365.4 207.8 365.3C 278.7 364.8 349.7 363.59998 420.6 362.19998C 436.6 361.9 437.80002 365.59998 432 380.69998C 419.3 413.49997 398.4 424.8 363.2 422.4C 321.90002 419.5 280.1 423.4 238.6 423.5C 226.90001 423.5 220.5 428 215.20001 438C 197.30002 471.5 178.80002 504.7 159.90001 537.6C 147.20001 559.8 145.20001 559.5 131.40001 537C 129.8 534.6 128.3 532.1 125.1 526.6z" stroke="none" fill="currentColor" fill-rule="nonzero" />
			</g>
			<g>
                <path d="M288.1 189.4C 293 170.9 308.2 165.7 329.5 166.2C 366 167 402.6 165.2 439.1 163.9C 452.6 163.4 461.80002 167.5 469 179.7C 505.2 240.7 541.9 301.4 578.9 362C 587.2 375.7 584.60004 378.6 568.60004 381.2C 533.9 386.7 513.50006 374.30002 497.90002 342.7C 479.60004 305.6 455.2 271.5 434.2 235.6C 428.30002 225.5 421.30002 222.20001 409.90002 222.6C 371.90002 224 334.00003 224.70001 296.00003 225C 270.40002 225.2 269.60004 223.3 282.20004 200.1C 283.6 197.5 285 195 288.1 189.4z" stroke="none" fill="currentColor" fill-rule="nonzero" />
			</g>
            <path d="M406.4 273C 365.19998 273.2 324 274.8 282.8 274.9C 273.59998 259.19998 256.4 248.59999 236.9 248.59999C 207.5 248.59999 183.59999 272.5 183.59999 301.9C 183.59999 331.3 207.49998 355.19998 236.9 355.19998C 255.29999 355.19998 271.5 345.9 281.1 331.69998C 309.1 330.59998 337.2 329.19998 365 331.3C 394.3 333.5 407.8 318.8 419.7 297.09998C 430.2 277.6 428.2 272.9 406.4 273zM236.9 329.8C 234.29999 329.8 231.7 329.4 229.29999 328.8C 217.59999 325.5 208.99998 314.69998 208.99998 301.9C 208.99998 286.5 221.49998 274 236.89998 274C 241.49998 274 245.89998 275.1 249.79997 277.1C 258.69998 281.80002 264.8 291.1 264.8 301.9C 264.8 317.3 252.3 329.8 236.9 329.8z" stroke="none" fill="currentColor" fill-rule="nonzero" />
            <path d="M284.3 467.2C 272.9 448.30002 267.69998 447.6 256.9 466.5C 234.7 505 214 544.3 191.5 582.6C 191.1 583.3 190.7 584 190.3 584.6C 161.7 585.39996 138.6 609 138.6 637.8C 138.6 667.2 162.5 691.1 191.90001 691.1C 221.30002 691.1 245.20001 667.19995 245.20001 637.8C 245.20001 629.2 243.1 621 239.50002 613.8C 254.50002 586 268.6 557.6 286.5 531.7C 303 507.5 297 488.4 284.3 467.2zM218.3 646.6C 214.6 657.69995 204.1 665.8 191.8 665.8C 176.40001 665.8 163.90001 653.3 163.90001 637.89996C 163.90001 626.39996 170.90001 616.39996 180.90001 612.19995C 184.20001 610.7999 187.90001 609.99994 191.8 609.99994C 207.2 609.99994 219.7 622.49994 219.7 637.89996C 219.7 640.9 219.2 643.8 218.3 646.6z" stroke="none" fill="currentColor" fill-rule="nonzero" />
            <path d="M653.5 308.4C 632.8 271.19998 610.7 234.79999 590.2 197.5C 596.5 188.8 600.10004 178.1 600.10004 166.6C 600.10004 137.20001 576.2 113.3 546.80005 113.3C 517.4001 113.3 493.50006 137.2 493.50006 166.6C 493.50006 192.5 512.10004 214.20001 536.7001 218.90001C 552.7001 245.70001 569.50006 272 582.30005 300.2C 594.50006 327 613.9 331.7 638.7001 331.6C 660.9 331.5 664.1 327.4 653.5 308.4zM574 173C 571.1 185.3 560 194.5 546.8 194.5C 534.89996 194.5 524.6 186.9 520.7 176.4C 519.60004 173.4 518.9 170.09999 518.9 166.59999C 518.9 151.2 531.4 138.7 546.80005 138.7C 562.2001 138.7 574.7001 151.2 574.7001 166.59999C 574.8 168.8 574.5 170.9 574 173z" stroke="none" fill="currentColor" fill-rule="nonzero" />
            <path d="M812.9 317.4C 783.5 317.4 759.60004 341.3 759.60004 370.69998C 759.60004 376.8 760.60004 382.59998 762.50006 387.99997C 746.9001 415.99997 732.30005 444.59998 714.00006 470.59998C 697.00006 494.59998 702.7001 513.8 715.2001 535.1C 726.4001 554.19995 731.6001 554.89996 742.6001 536.19995C 764.7001 498.89996 785.4001 460.79996 807.7001 423.69995C 809.4001 423.89996 811.1001 423.89996 812.80005 423.89996C 842.2001 423.89996 866.10004 399.99997 866.10004 370.59998C 866.10004 341.19998 842.3 317.4 812.9 317.4zM820 397.6C 817.7 398.2 815.4 398.5 812.9 398.5C 797.5 398.5 785 386 785 370.6C 785 364.80002 786.8 359.4 789.9 354.9C 794.9 347.5 803.4 342.69998 812.9 342.69998C 828.30005 342.69998 840.80005 355.19998 840.80005 370.59998C 840.8 383.6 832 394.5 820 397.6z" stroke="none" fill="currentColor" fill-rule="nonzero" />
            <path d="M769.4 649.7C 752.30005 649.7 737 657.9 727.2 670.5C 695.7 671.2 664.2 672.9 633 670.1C 603.7 667.5 590 682.1 577.9 703.6C 567.10004 722.89996 569 727.69995 590.80005 727.8C 634.60004 728.1 678.4 726.8 722.2001 727.39996C 731.1001 744.39996 748.9001 756.1 769.4001 756.1C 798.8001 756.1 822.7001 732.19995 822.7001 702.8C 822.7 673.6 798.8 649.7 769.4 649.7zM769.4 730.8C 762.5 730.8 756.2 728.3 751.30005 724.1C 745.30005 719 741.50006 711.39996 741.50006 702.89996C 741.50006 687.49994 754.00006 674.99994 769.4001 674.99994L769.4001 674.99994L769.50006 674.99994C 784.9001 674.99994 797.4001 687.49994 797.4001 702.89996C 797.3 718.3 784.8 730.8 769.4 730.8z" stroke="none" fill="currentColor" fill-rule="nonzero" />
            <path d="M466.3 780.9C 450.09998 754.5 433 728.4 419.9 700.5C 407.4 673.9 387.9 669.4 363.19998 669.8C 341.09998 670.1 337.9 674.3 348.69998 693.1C 369.8 730 392.3 766.1 413.19998 803C 407.19998 811.6 403.69998 822.1 403.69998 833.3C 403.69998 862.7 427.59998 886.6 456.99997 886.6C 486.39996 886.6 510.29996 862.69995 510.29996 833.3C 510.3 807.2 491.2 785.4 466.3 780.9zM457 861.3C 441.6 861.3 429.1 848.8 429.1 833.39996C 429.1 831.39996 429.30002 829.39996 429.7 827.49994C 432.40002 814.89996 443.6 805.39996 457 805.39996C 468.9 805.39996 479.1 812.89996 483.1 823.39996C 484.2 826.49994 484.9 829.8 484.9 833.3C 484.9 848.8 472.4 861.3 457 861.3z" stroke="none" fill="currentColor" fill-rule="nonzero" />
		</g>
	</g>
</g>
</svg>